<?xml version="1.0" encoding="UTF-8" standalone="no"?>
<!-- Created with Inkscape (http://www.inkscape.org/) -->

<svg
   width="1023.9999"
   height="1023.9999"
   viewBox="0 0 270.9333 270.9333"
   version="1.1"
   id="svg5"
   xml:space="preserve"
   inkscape:version="1.2.2 (b0a8486541, 2022-12-01)"
   sodipodi:docname="le bus notification.svg"
   inkscape:export-filename="le bus notification.png"
   inkscape:export-xdpi="96"
   inkscape:export-ydpi="96"
   xmlns:inkscape="http://www.inkscape.org/namespaces/inkscape"
   xmlns:sodipodi="http://sodipodi.sourceforge.net/DTD/sodipodi-0.dtd"
   xmlns="http://www.w3.org/2000/svg"
   xmlns:svg="http://www.w3.org/2000/svg"><sodipodi:namedview
     id="namedview7"
     pagecolor="#ffffff"
     bordercolor="#ffffff"
     borderopacity="1"
     inkscape:showpageshadow="0"
     inkscape:pageopacity="0"
     inkscape:pagecheckerboard="false"
     inkscape:deskcolor="#545454"
     inkscape:document-units="mm"
     showgrid="false"
     showborder="true"
     showguides="true"
     inkscape:zoom="0.5625"
     inkscape:cx="25.777778"
     inkscape:cy="556.44444"
     inkscape:window-width="1680"
     inkscape:window-height="977"
     inkscape:window-x="0"
     inkscape:window-y="0"
     inkscape:window-maximized="1"
     inkscape:current-layer="g236"><inkscape:grid
       type="xygrid"
       id="grid2499"
       spacingx="1.0583332"
       spacingy="1.0583332"
       enabled="false" /><inkscape:grid
       type="xygrid"
       id="grid427"
       enabled="false" /><inkscape:grid
       type="xygrid"
       id="grid20805"
       spacingx="8.4666656"
       spacingy="8.4666656"
       empspacing="4" /></sodipodi:namedview><defs
     id="defs2"><linearGradient
       id="linearGradient8529"
       inkscape:swatch="gradient"><stop
         style="stop-color:#ffffff;stop-opacity:1;"
         offset="0.90312499"
         id="stop8525" /><stop
         style="stop-color:#e5e5e5;stop-opacity:1;"
         offset="1"
         id="stop8527" /></linearGradient><inkscape:path-effect
       effect="fillet_chamfer"
       id="path-effect240"
       is_visible="true"
       lpeversion="1"
       nodesatellites_param="F,0,0,1,1,0,0,1 @ F,0,0,1,1,0,0,1 @ F,0,0,1,1,0,0,1 @ F,0,0,1,1,0,0,1 @ F,0,0,1,1,0,0,1 @ F,0,0,1,1,0,0,1 @ F,0,0,1,1,0,0,1 @ F,0,0,1,1,0,0,1 @ F,0,0,1,1,0,0,1 @ F,0,0,1,1,0,0,1 @ F,0,0,1,1,0,0,1 @ F,0,0,1,1,0,0,1 @ F,0,0,1,1,0,0,1 @ F,0,0,1,1,0,0,1 @ F,0,0,1,1,0,0,1 | F,0,0,1,1,0,0,1 @ F,0,0,1,1,0,0,1 @ F,0,0,1,1,0,0,1 @ F,0,0,1,1,0,0,1 | F,0,0,1,1,0,0,1 @ F,0,0,1,1,0,0,1 @ F,0,0,1,1,0,0,1 @ F,0,0,1,1,0,0,1 | F,0,1,1,1,3.8836243,0,1 @ F,0,1,1,1,3.8836243,0,1 @ F,0,1,1,1,3.8836243,0,1 @ F,0,1,1,1,3.8836243,0,1"
       unit="px"
       method="auto"
       mode="F"
       radius="0"
       chamfer_steps="1"
       flexible="false"
       use_knot_distance="true"
       apply_no_radius="true"
       apply_with_radius="true"
       only_selected="false"
       hide_knots="true" /><linearGradient
       id="linearGradient18823"
       inkscape:swatch="solid"><stop
         style="stop-color:#8cc24a;stop-opacity:1;"
         offset="0"
         id="stop18821" /></linearGradient><linearGradient
       id="linearGradient14733"
       inkscape:swatch="solid"><stop
         style="stop-color:#0aef2a;stop-opacity:1;"
         offset="0"
         id="stop14731" /></linearGradient><linearGradient
       id="linearGradient16355"
       inkscape:swatch="solid"><stop
         style="stop-color:#85c23e;stop-opacity:1;"
         offset="0"
         id="stop16353" /></linearGradient><clipPath
       clipPathUnits="userSpaceOnUse"
       id="clipPath27372"><rect
         style="fill:#030303;fill-opacity:0.57478;stroke:none;stroke-width:6.45851;stroke-linecap:round;stroke-linejoin:round;stroke-dasharray:none;stroke-opacity:1"
         id="rect27374"
         width="224.86371"
         height="146.63794"
         x="-5.6444445"
         y="15.522223" /></clipPath></defs><g
     inkscape:label="Calque 10"
     inkscape:groupmode="layer"
     id="g236"
     style="display:inline"><path
       id="path234"
       style="display:inline;fill:#000000;fill-opacity:1;fill-rule:nonzero;stroke:none;stroke-width:0.678492;stroke-opacity:1"
       d="M 135.72608 26.693461 C 83.675507 26.693461 58.927158 26.697766 47.446716 35.461918 C 55.63839 37.486231 63.830677 39.508197 72.020927 41.53855 C 84.871762 44.724256 97.720937 47.916246 110.56948 51.111609 C 128.84549 55.656754 147.12009 60.207691 165.39507 64.756771 L 209.63475 64.756771 A 3.8836156 3.8836156 0 0 1 213.51823 68.640771 L 213.51823 98.3387 L 213.51823 109.77728 L 213.51823 162.788 A 3.8836331 3.8836331 0 0 1 209.63423 166.67148 L 153.35963 166.67148 L 87.437557 166.67148 L 65.419263 166.67148 A 3.8852201 3.8852201 0 0 1 61.534229 162.788 L 61.497021 72.669983 C 53.67409 70.72303 45.851101 68.775949 38.02817 66.828996 C 38.027651 67.024566 38.023002 67.205639 38.023002 67.403121 L 38.023002 197.67372 C 38.023002 208.52958 38.023344 219.38506 48.879187 219.38506 L 48.879187 238.38287 C 48.879187 243.81077 54.307014 246.525 62.448901 246.525 C 70.59079 246.525 76.018616 243.81077 76.018616 238.38287 L 76.018616 219.38506 L 195.43303 219.38506 L 195.43303 238.38287 C 195.43303 243.81077 200.86137 246.525 209.00326 246.525 C 217.14516 246.525 222.57298 243.81077 222.57298 238.38287 L 222.57298 219.38506 C 233.42884 219.38506 233.42865 208.52958 233.42865 197.67372 L 233.42865 67.403121 C 233.42865 26.693685 222.57291 26.693461 135.72608 26.693461 z M 70.590523 179.19785 C 81.446379 179.19785 86.874801 187.33973 86.874801 195.48161 C 86.874801 203.62349 81.446379 211.76539 70.590523 211.76537 C 59.734667 211.76536 54.306763 203.62349 54.306763 195.48161 C 54.306763 187.33974 59.734667 179.19785 70.590523 179.19785 z M 200.86112 179.19785 C 211.71696 179.19785 217.14489 187.33972 217.14489 195.48161 C 217.14489 203.6235 211.71699 211.76537 200.86112 211.76537 C 190.0053 211.76537 184.57736 203.6235 184.57736 195.48161 C 184.57736 187.33972 190.0053 179.19785 200.86112 179.19785 z M 97.617297 195.21082 C 102.96577 196.53502 108.30356 197.90834 113.65043 199.24262 C 108.30356 197.90834 102.96577 196.53502 97.617297 195.21082 z " /><rect
       style="display:none;fill:#030303;fill-opacity:0.57478;stroke:none;stroke-width:5.73303;stroke-linecap:round;stroke-linejoin:round;stroke-dasharray:none;stroke-opacity:1"
       id="rect187"
       width="199.60475"
       height="130.16609"
       x="10.465891"
       y="30.138176" /><path
       style="color:#000000;display:inline;fill:#000000;stroke:none;stroke-width:6.61507159;stroke-linecap:round;stroke-linejoin:round;stroke-dasharray:none;stroke-opacity:1"
       d="M 19.601562,24.121094 5.171875,32.798828 13.851563,47.228516 190.65234,91.226562 c 0,0 0.15624,-0.05909 1.0918,1.089844 0.93556,1.148933 2.95536,3.462175 0.52734,13.218754 -2.42801,9.75657 -5.29717,10.85325 -6.66211,11.42968 -1.36493,0.57644 -1.4746,0.45118 -1.4746,0.45118 l -32.86524,-8.17969 c -6.38083,-1.58767 -12.84077,2.29721 -14.42969,8.67773 L 122,177.55273 l -11.07227,-2.7539 20.85839,-83.868821 c 1.58837,-6.380942 -2.29679,-12.841345 -8.67774,-14.429687 -6.38154,-1.588258 -12.84223,2.297945 -14.42969,8.679687 L 84.945312,180.60156 c -1.587673,6.38084 2.297208,12.84077 8.677735,14.42969 l 34.179683,8.50586 c 6.38144,1.58755 12.84166,-2.29837 14.42969,-8.67969 l 14.83985,-59.63867 21.31054,5.30469 c 0,0 8.10563,1.91792 16.49024,-1.62305 8.38461,-3.54097 16.79993,-12.72362 20.50586,-27.61523 3.70591,-14.891617 0.57709,-26.948109 -5.16993,-34.005863 -5.74701,-7.057754 -13.80664,-9.160156 -13.80664,-9.160156 z"
       id="path185"
       clip-path="url(#clipPath27372)"
       sodipodi:nodetypes="ccccsssccccccccccccccssscc"
       transform="matrix(0.88766991,0,0,0.88766991,15.476294,16.359565)" /></g></svg>
