<?xml version="1.0" encoding="UTF-8" standalone="no"?>
<!-- Created with Inkscape (http://www.inkscape.org/) -->

<svg
   id="svg2"
   sodipodi:docname="stop_and_miss.svg"
   viewBox="0 0 269.97 269.97"
   version="1.1"
   inkscape:version="1.4 (86a8ad7, 2024-10-11)"
   xmlns:inkscape="http://www.inkscape.org/namespaces/inkscape"
   xmlns:sodipodi="http://sodipodi.sourceforge.net/DTD/sodipodi-0.dtd"
   xmlns="http://www.w3.org/2000/svg"
   xmlns:svg="http://www.w3.org/2000/svg"
   xmlns:rdf="http://www.w3.org/1999/02/22-rdf-syntax-ns#"
   xmlns:cc="http://creativecommons.org/ns#"
   xmlns:dc="http://purl.org/dc/elements/1.1/">
  <defs
     id="defs1" />
  <title
     id="title3906">Stop Sign</title>
  <sodipodi:namedview
     id="base"
     fit-margin-left="0.1"
     inkscape:zoom="2"
     borderopacity="1.0"
     inkscape:current-layer="g3031"
     inkscape:cx="127.5"
     inkscape:cy="148.25"
     inkscape:window-maximized="1"
     showgrid="false"
     fit-margin-right="0.1"
     units="in"
     inkscape:document-units="in"
     bordercolor="#666666"
     inkscape:window-x="-8"
     inkscape:window-y="-8"
     fit-margin-bottom="0.1"
     inkscape:window-width="1680"
     inkscape:pageopacity="0.0"
     inkscape:pageshadow="2"
     pagecolor="#424242"
     inkscape:window-height="987"
     fit-margin-top="0.1"
     inkscape:showpageshadow="2"
     inkscape:pagecheckerboard="true"
     inkscape:deskcolor="#d1d1d1" />
  <g
     id="layer1"
     inkscape:label="Layer 1"
     inkscape:groupmode="layer"
     transform="matrix(1.0714338,0,0,1.0714337,-395.3744,-582.73007)">
    <g
       id="g3031">
      <path
         id="path3030"
         style="fill:#000000;fill-opacity:1"
         sodipodi:type="star"
         d="m 443.3607,420.6989 -82.75679,63.50152 -103.42024,-13.61554 -63.50152,-82.75679 13.61554,-103.42024 82.75679,-63.50152 103.42024,13.61554 63.50151,82.75679 z"
         sodipodi:r1="136.29105"
         inkscape:flatsided="true"
         transform="matrix(0.99127,-0.13184,0.13184,0.99127,126.03,363.28)"
         sodipodi:arg2="0.91629786"
         sodipodi:arg1="0.52359878"
         inkscape:randomized="0"
         sodipodi:cy="352.55338"
         sodipodi:cx="325.32919"
         inkscape:rounded="0"
         sodipodi:r2="125.9165"
         sodipodi:sides="8" />
      <path
         id="path3038-9"
         style="fill:#ffffff"
         sodipodi:type="inkscape:offset"
         d="m 290.0625,220.90625 -82.75,63.5 -13.625,103.40625 63.5,82.78125 103.40625,13.59375 82.78125,-63.5 13.59375,-103.40625 -63.5,-82.75 z"
         inkscape:original="M 290.0625 220.90625 L 207.3125 284.40625 L 193.6875 387.8125 L 257.1875 470.59375 L 360.59375 484.1875 L 443.375 420.6875 L 456.96875 317.28125 L 393.46875 234.53125 L 290.0625 220.90625 z "
         transform="matrix(0.95822376,-0.12744481,0.12744481,0.95822376,138.31969,373.50333)"
         inkscape:radius="-0.0093232403" />
      <path
         id="path3042"
         style="fill:#e80808"
         sodipodi:type="inkscape:offset"
         d="m 292.45117,229.82227 -77.14453,59.19921 -12.70117,96.40235 59.19726,77.17383 96.40235,12.67382 77.17383,-59.19921 12.67382,-96.4004 -59.19921,-77.14648 z"
         inkscape:original="M 290.0625 220.90625 L 207.3125 284.40625 L 193.6875 387.8125 L 257.1875 470.59375 L 360.59375 484.1875 L 443.375 420.6875 L 456.96875 317.28125 L 393.46875 234.53125 L 290.0625 220.90625 z "
         transform="matrix(0.96763845,-0.12869698,0.12869698,0.96763845,134.81642,370.57906)"
         inkscape:radius="-8.5289392" />
      <g
         id="flowRoot3004"
         style="fill:#ffffff"
         transform="translate(205.57,421.94)">
        <path
           id="path3028"
           d="m 345.84,207.37 h 21.242 c 5.7446,8e-5 10.153,0.45097 13.226,1.3527 3.1061,0.90185 5.4273,2.2044 6.9637,3.9077 1.5697,1.7034 2.6218,3.7742 3.1562,6.2122 0.56774,2.4048 0.85163,6.1455 0.85168,11.222 v 7.0639 c -5e-5,5.1769 -0.53443,8.951 -1.6032,11.322 -1.0688,2.3714 -3.0394,4.1916 -5.9116,5.4608 -2.839,1.2692 -6.563,1.9038 -11.172,1.9038 h -5.6612 v 32.664 h -21.092 v -81.11 m 21.092,13.877 v 20.641 c 0.60116,0.0334 1.1188,0.0502 1.5531,0.0501 1.9371,5e-5 3.2731,-0.46754 4.0079,-1.4028 0.76815,-0.96853 1.1522,-2.9558 1.1523,-5.9618 v -6.6631 c -3e-5,-2.7721 -0.43422,-4.5756 -1.3026,-5.4107 -0.86841,-0.83492 -2.672,-1.2524 -5.4107,-1.2525 m -29.007,33.616 c -5e-5,8.1494 -0.20045,13.927 -0.60118,17.334 -0.36745,3.3733 -1.5698,6.4628 -3.6071,9.2683 -2.004,2.8055 -4.726,4.9598 -8.1661,6.4627 -3.4402,1.503 -7.448,2.2544 -12.024,2.2544 -4.3419,0 -8.2496,-0.70139 -11.723,-2.1042 -3.4401,-1.4362 -6.2123,-3.5737 -8.3164,-6.4126 -2.1042,-2.8389 -3.3566,-5.9283 -3.7574,-9.2683 -0.4008,-3.3399 -0.60119,-9.1848 -0.60119,-17.535 v -13.877 c 0,-8.1494 0.18369,-13.911 0.55109,-17.284 0.40078,-3.4066 1.6032,-6.5128 3.6071,-9.3184 2.0373,-2.8055 4.7761,-4.9597 8.2162,-6.4627 3.4401,-1.5029 7.448,-2.2544 12.024,-2.2544 4.3419,9e-5 8.2329,0.71817 11.673,2.1542 3.4735,1.4028 6.2623,3.5237 8.3665,6.3625 2.1041,2.839 3.3566,5.9284 3.7574,9.2683 0.40073,3.34 0.60113,9.1848 0.60118,17.535 v 13.877 m -21.092,-26.653 c -3e-5,-3.774 -0.21712,-6.1788 -0.65128,-7.2142 -0.40082,-1.0687 -1.2525,-1.6031 -2.555,-1.6032 -1.1022,7e-5 -1.9539,0.43426 -2.555,1.3026 -0.56781,0.83505 -0.85171,3.34 -0.85168,7.5148 v 37.875 c -3e-5,4.7093 0.18367,7.615 0.55109,8.7172 0.40076,1.1022 1.3025,1.6533 2.7053,1.6533 1.4361,10e-6 2.3546,-0.63457 2.7554,-1.9038 0.40076,-1.2692 0.60115,-4.2918 0.60118,-9.0679 v -37.273 m -31.913,-20.841 v 16.232 h -12.525 v 64.878 h -21.092 v -64.878 h -12.475 v -16.232 h 46.091 m -50.9,24.548 h -19.589 v -6.0118 c -3e-5,-2.8055 -0.25052,-4.5923 -0.75148,-5.3606 -0.50101,-0.76811 -1.336,-1.1522 -2.5049,-1.1523 -1.2692,7e-5 -2.2378,0.51776 -2.9057,1.5531 -0.63461,1.0354 -0.9519,2.6052 -0.95188,4.7093 -2e-5,2.7054 0.36737,4.7427 1.1022,6.112 0.70136,1.3694 2.6886,3.0227 5.9618,4.9598 9.3851,5.5777 15.297,10.153 17.735,13.727 2.4381,3.5738 3.6572,9.3351 3.6572,17.284 -5e-5,5.7781 -0.68473,10.036 -2.054,12.775 -1.336,2.7387 -3.9412,5.0433 -7.8154,6.9136 -3.8743,1.837 -8.3832,2.7554 -13.527,2.7554 -5.6445,0 -10.471,-1.0688 -14.479,-3.2063 -3.9745,-2.1376 -6.5796,-4.8596 -7.8154,-8.1661 -1.2358,-3.3065 -1.8537,-7.9991 -1.8537,-14.078 v -5.3105 h 19.589 v 9.8695 c -3e-5,3.0393 0.26717,4.9932 0.80158,5.8616 0.56776,0.86839 1.553,1.3026 2.9558,1.3026 1.4027,10e-6 2.4381,-0.55108 3.1061,-1.6533 0.70135,-1.1022 1.052,-2.7387 1.0521,-4.9097 -3e-5,-4.7761 -0.65131,-7.8989 -1.9538,-9.3685 -1.336,-1.4695 -4.6258,-3.9244 -9.8695,-7.3645 -5.2437,-3.4735 -8.7172,-5.9951 -10.421,-7.5649 -1.7034,-1.5697 -3.1228,-3.7407 -4.2584,-6.5128 -1.1022,-2.7721 -1.6533,-6.3124 -1.6533,-10.621 0,-6.2122 0.78488,-10.754 2.3546,-13.627 1.6032,-2.8723 4.1749,-5.11 7.7152,-6.7132 3.5403,-1.6365 7.8154,-2.4548 12.825,-2.4548 5.4774,9e-5 10.137,0.88516 13.978,2.6552 3.8743,1.7702 6.4293,4.008 7.6651,6.7132 1.2691,2.672 1.9037,7.231 1.9038,13.677 v 3.2063" />
      </g>
      <g
         id="text1"
         style="font-size:11.1999px;font-family:Alef;-inkscape-font-specification:Alef;text-align:center;text-anchor:middle;fill:#ffffff;stroke-width:0.933329"
         aria-label="AND&#10;KISS">
        <path
           style="font-size:19.911px;font-family:'Comic Sans MS';-inkscape-font-specification:'Comic Sans MS'"
           d="m 488.88028,727.54105 q -0.89444,0 -1.55555,-2.29443 -0.25278,-0.87499 -0.63194,-3.06248 -0.99166,0.13611 -2.59582,0.48611 l -2.5861,0.53472 q -0.4861,1.2736 -1.66249,3.72359 -0.31111,0.54444 -0.84583,0.54444 -0.38888,0 -0.69999,-0.28194 -0.30139,-0.28195 -0.30139,-0.7 0,-0.46666 1.46805,-3.54859 -0.16528,-0.25278 -0.16528,-0.58333 0,-0.7875 0.95277,-1.01111 1.10833,-2.08054 2.79999,-4.7833 2.30415,-3.6847 2.86804,-3.6847 0.76805,0 1.04999,1.06943 l 0.6125,3.26665 1.4486,6.75691 0.55416,1.5361 q 0.28195,0.7875 0.28195,1.05 0,0.41805 -0.30139,0.69999 -0.30139,0.28194 -0.69027,0.28194 z m -3.43193,-11.11243 -2.78054,4.48192 q 1.17638,-0.30139 3.56804,-0.72917 z m 20.82488,8.66245 q 0,0.46666 -0.15555,1.55555 -0.15555,0.98193 -1.04027,0.98193 -0.53472,0 -1.27361,-0.69999 -3.95692,-3.74304 -9.0805,-10.80133 l -0.0486,2.20693 -0.0292,2.21666 q 0,0.80694 0.0292,2.42082 0.0389,1.61388 0.0389,2.43054 0,2.61526 -1.01111,2.61526 -0.53472,0 -0.84583,-0.34027 -0.28194,-0.30139 -0.28194,-0.71945 0,-0.40833 0.0583,-1.23471 0.0681,-0.82638 0.0681,-1.23472 0,-0.60277 0.0389,-1.7986 0.0389,-1.20555 0.0389,-1.80832 0,-0.64166 -0.0292,-1.93471 -0.0292,-1.30277 -0.0292,-1.94444 0,-0.61249 -0.11666,-1.81804 -0.11667,-1.21527 -0.11667,-1.82777 0,-0.44722 0.37917,-0.81666 0.38888,-0.36944 0.87499,-0.36944 0.51528,0 1.2736,1.12777 2.42082,3.62637 4.35554,6.02774 2.30415,2.8486 5.05552,5.44442 0.0292,-0.41806 0,-1.23472 l -0.0292,-1.22499 q 0,-4.26803 -0.33056,-6.7958 -0.0389,-0.25277 -0.2625,-1.02082 -0.19444,-0.66111 -0.19444,-1.03055 0,-1.12778 1.03055,-1.12778 1.69166,0 1.69166,6.30969 0,1.07916 -0.0292,3.22776 -0.0292,2.13888 -0.0292,3.21804 z m 11.34578,2.09026 q -1.50694,1.03055 -4.32637,1.03055 -0.70972,0 -1.6236,-0.22361 -1.09861,-0.26249 -1.65277,-0.68055 h -0.0972 q -0.41805,0 -0.7,-0.29166 -0.28194,-0.29167 -0.28194,-0.70972 0,-1.02083 0.0875,-3.05276 0.0972,-2.04166 0.0972,-3.06248 0,-1.1375 -0.0486,-3.39304 -0.0389,-2.26527 -0.0389,-3.40276 0,-0.39861 0.40833,-0.83611 0.40833,-0.43749 0.81666,-0.43749 0.23334,0 1.55555,0.65138 1.49721,0.72916 1.73055,0.80694 2.76109,0.94305 4.70553,2.89721 2.28471,2.30415 2.28471,5.06525 0,1.66249 -0.7875,3.18887 -0.77777,1.52638 -2.12915,2.44998 z m -2.04166,-10.28605 q -0.99166,-0.65138 -4.57914,-2.2361 l 0.0486,2.79999 0.0292,2.79026 -0.15556,5.3083 q 0.0681,0.0292 0.20417,0.12639 0.85555,0.57361 2.15832,0.57361 2.21665,0 3.22776,-0.68055 0.94305,-0.64167 1.49721,-1.72083 0.56389,-1.08888 0.56389,-2.26526 0,-2.74165 -2.99443,-4.69581 z"
           id="path1" />
        <path
           d="m 451.26549,754.55511 q -0.87499,3.14999 -2.44998,9.50828 -0.36945,2.19721 -0.71944,4.37498 -0.79722,2.76109 -2.9361,2.76109 -1.34166,0 -2.11943,-0.91388 -0.66111,-0.77777 -0.66111,-1.84721 0,-3.14998 1.34166,-7.68051 2.00277,-6.78608 2.15832,-7.52496 0.56389,-2.99443 1.14722,-5.98886 0.87499,-4.1222 1.8861,-5.4833 1.03055,-1.38055 2.58609,-1.38055 1.76944,0 2.60555,1.78888 0.77777,1.69166 1.67221,6.92218 0.85555,5.07498 2.54721,10.92772 2.21665,-5.77497 4.1222,-12.67771 l 1.08888,-4.47219 q 1.04999,-2.78054 3.2472,-2.78054 2.11943,0 3.14998,3.22776 0.42778,1.30277 0.91389,4.86108 1.12777,8.28329 2.83887,14.19437 1.73055,6.0083 1.73055,6.53329 0,1.14722 -0.91389,1.92499 -0.85555,0.7 -1.92499,0.7 -2.11943,0 -3.14998,-3.03332 l -1.08888,-4.70553 q -0.93333,-3.49998 -2.02221,-10.05272 -0.875,2.60554 -2.89721,8.18607 l -1.16666,3.57775 q -0.71944,2.11944 -1.49721,3.48054 -1.03055,1.80832 -2.87776,1.80832 -1.82777,0 -2.79999,-2.15832 l -1.08888,-3.61664 q -1.51666,-4.97775 -2.72221,-10.46106 z m 43.47754,-7.62218 q -1.01111,0 -5.54164,-0.54444 -0.27222,3.57776 -0.27222,9.50828 l -0.0194,8.73051 q 2.58609,-0.0583 5.26941,-0.0583 1.16666,0 1.92499,0.77777 0.77777,0.77777 0.77777,1.86666 0,1.08888 -0.77777,1.86665 -0.75833,0.75833 -1.92499,0.75833 -1.08888,0 -3.26665,0.0583 -2.17776,0.0389 -3.26665,0.0389 -1.28332,0 -3.84998,0.33056 -2.56665,0.34999 -3.84997,0.34999 -1.16666,0 -1.94444,-0.75833 -0.75833,-0.77777 -0.75833,-1.86665 0,-1.08888 0.75833,-1.86666 0.77778,-0.77777 1.94444,-0.77777 1.32221,0 3.48053,-0.29167 -0.0389,-2.29443 -0.0389,-8.78884 0,-5.28885 0.38889,-10.09161 l -4.21942,0.11667 q -1.16666,0 -1.96388,-0.75833 -0.77777,-0.75833 -0.77777,-1.8861 0,-1.14722 0.77777,-1.86666 0.71944,-0.6611 1.76944,-0.75832 1.7111,-0.15556 5.94996,-0.15556 3.81109,0 9.81939,0.81666 2.39166,0.33056 2.39166,2.68332 0,1.24444 -0.97222,1.96388 -0.79722,0.60277 -1.80832,0.60277 z m 14.25269,24.16931 q -4.93886,0 -7.77773,-2.19721 -2.39166,-1.82777 -2.39166,-4.21942 0,-1.22499 0.73889,-2.02221 0.73888,-0.81666 2.04165,-0.81666 1.74999,0 2.56666,1.78888 1.10832,2.39165 5.01663,2.39165 3.34443,0 6.47497,-1.45832 3.2472,-1.49722 3.2472,-3.2861 0,-2.44998 -2.02221,-3.22776 -1.43888,-0.56388 -5.77497,-0.6611 -3.36387,-0.0778 -6.02774,-1.26389 -3.5972,-1.61388 -3.53887,-4.62775 0.0583,-3.79164 4.04442,-6.94163 3.98609,-3.16942 8.78884,-3.16942 1.90555,0 4.70553,0.87499 3.48054,1.08889 3.48054,2.50832 0,1.01111 -0.7,1.78888 -0.77777,0.875 -2.00277,0.875 -0.91388,0 -2.74165,-0.38889 -1.80832,-0.38889 -2.74165,-0.38889 -2.50832,0.0195 -4.76386,1.20555 -2.33332,1.20555 -2.33332,2.62499 0,0.73888 0.7,1.22499 0.71944,0.46666 2.13887,0.66111 2.48888,0.13611 4.95831,0.27222 4.31664,0.33055 6.82496,2.43054 2.7611,2.33332 2.7611,6.45552 0,5.01664 -5.71664,7.60273 -4.35553,1.96388 -9.9555,1.96388 z m 27.61096,0 q -4.93887,0 -7.77774,-2.19721 -2.39165,-1.82777 -2.39165,-4.21942 0,-1.22499 0.73888,-2.02221 0.73889,-0.81666 2.04166,-0.81666 1.74999,0 2.56665,1.78888 1.10833,2.39165 5.01664,2.39165 3.34442,0 6.47496,-1.45832 3.24721,-1.49722 3.24721,-3.2861 0,-2.44998 -2.02221,-3.22776 -1.43888,-0.56388 -5.77497,-0.6611 -3.36387,-0.0778 -6.02775,-1.26389 -3.5972,-1.61388 -3.53886,-4.62775 0.0583,-3.79164 4.04442,-6.94163 3.98609,-3.16942 8.78884,-3.16942 1.90554,0 4.70553,0.87499 3.48053,1.08889 3.48053,2.50832 0,1.01111 -0.69999,1.78888 -0.77778,0.875 -2.00277,0.875 -0.91388,0 -2.74165,-0.38889 -1.80833,-0.38889 -2.74165,-0.38889 -2.50832,0.0195 -4.76387,1.20555 -2.33332,1.20555 -2.33332,2.62499 0,0.73888 0.7,1.22499 0.71944,0.46666 2.13888,0.66111 2.48887,0.13611 4.9583,0.27222 4.31665,0.33055 6.82496,2.43054 2.7611,2.33332 2.7611,6.45552 0,5.01664 -5.71663,7.60273 -4.35554,1.96388 -9.9555,1.96388 z"
           id="text2"
           style="font-weight:bold;font-size:39.822px;line-height:0;font-family:'Comic Sans MS';-inkscape-font-specification:'Comic Sans MS Bold';stroke-width:0.871103"
           aria-label="MISS" />
      </g>
    </g>
  </g>
  <metadata
     id="metadata1">
    <rdf:RDF>
      <cc:Work
         rdf:about="">
        <dc:title>Stop Sign</dc:title>
      </cc:Work>
    </rdf:RDF>
  </metadata>
</svg>
