<?xml version="1.0" encoding="UTF-8" standalone="no"?>
<!-- Created with Inkscape (http://www.inkscape.org/) -->

<svg
   width="1023.9999"
   height="1023.9999"
   viewBox="0 0 270.9333 270.9333"
   version="1.1"
   id="svg5"
   xml:space="preserve"
   inkscape:version="1.3 (0e150ed6c4, 2023-07-21)"
   sodipodi:docname="le bus rendu.svg"
   inkscape:export-filename="le bus.jpg"
   inkscape:export-xdpi="96"
   inkscape:export-ydpi="96"
   xmlns:inkscape="http://www.inkscape.org/namespaces/inkscape"
   xmlns:sodipodi="http://sodipodi.sourceforge.net/DTD/sodipodi-0.dtd"
   xmlns="http://www.w3.org/2000/svg"
   xmlns:svg="http://www.w3.org/2000/svg"><sodipodi:namedview
     id="namedview7"
     pagecolor="#ffffff"
     bordercolor="#ffffff"
     borderopacity="1"
     inkscape:showpageshadow="0"
     inkscape:pageopacity="1"
     inkscape:pagecheckerboard="false"
     inkscape:deskcolor="#545454"
     inkscape:document-units="mm"
     showgrid="false"
     showborder="true"
     showguides="true"
     inkscape:zoom="0.5625"
     inkscape:cx="352.88889"
     inkscape:cy="552.88889"
     inkscape:window-width="1680"
     inkscape:window-height="978"
     inkscape:window-x="1680"
     inkscape:window-y="0"
     inkscape:window-maximized="1"
     inkscape:current-layer="g236"><inkscape:grid
       type="xygrid"
       id="grid2499"
       spacingx="1.0583332"
       spacingy="1.0583332"
       enabled="false"
       originx="0"
       originy="0"
       units="mm"
       visible="false" /><inkscape:grid
       type="xygrid"
       id="grid427"
       enabled="false"
       originx="0"
       originy="0"
       spacingy="1"
       spacingx="1"
       units="mm"
       visible="false" /><inkscape:grid
       type="xygrid"
       id="grid20805"
       spacingx="8.4666656"
       spacingy="8.4666656"
       empspacing="4"
       originx="0"
       originy="0"
       units="mm"
       visible="false" /></sodipodi:namedview><defs
     id="defs2"><linearGradient
       id="linearGradient8529"
       inkscape:swatch="gradient"><stop
         style="stop-color:#ffffff;stop-opacity:1;"
         offset="0.90312499"
         id="stop8525" /><stop
         style="stop-color:#e5e5e5;stop-opacity:1;"
         offset="1"
         id="stop8527" /></linearGradient><inkscape:path-effect
       effect="fillet_chamfer"
       id="path-effect240"
       is_visible="true"
       lpeversion="1"
       nodesatellites_param="F,0,0,1,1,0,0,1 @ F,0,0,1,1,0,0,1 @ F,0,0,1,1,0,0,1 @ F,0,0,1,1,0,0,1 @ F,0,0,1,1,0,0,1 @ F,0,0,1,1,0,0,1 @ F,0,0,1,1,0,0,1 @ F,0,0,1,1,0,0,1 @ F,0,0,1,1,0,0,1 @ F,0,0,1,1,0,0,1 @ F,0,0,1,1,0,0,1 @ F,0,0,1,1,0,0,1 @ F,0,0,1,1,0,0,1 @ F,0,0,1,1,0,0,1 @ F,0,0,1,1,0,0,1 | F,0,0,1,1,0,0,1 @ F,0,0,1,1,0,0,1 @ F,0,0,1,1,0,0,1 @ F,0,0,1,1,0,0,1 | F,0,0,1,1,0,0,1 @ F,0,0,1,1,0,0,1 @ F,0,0,1,1,0,0,1 @ F,0,0,1,1,0,0,1 | F,0,1,1,1,3.8836243,0,1 @ F,0,1,1,1,3.8836243,0,1 @ F,0,1,1,1,3.8836243,0,1 @ F,0,1,1,1,3.8836243,0,1"
       unit="px"
       method="auto"
       mode="F"
       radius="0"
       chamfer_steps="1"
       flexible="false"
       use_knot_distance="true"
       apply_no_radius="true"
       apply_with_radius="true"
       only_selected="false"
       hide_knots="true" /><linearGradient
       id="linearGradient18823"
       inkscape:swatch="solid"><stop
         style="stop-color:#8cc24a;stop-opacity:1;"
         offset="0"
         id="stop18821" /></linearGradient><linearGradient
       id="linearGradient14733"
       inkscape:swatch="solid"><stop
         style="stop-color:#0aef2a;stop-opacity:1;"
         offset="0"
         id="stop14731" /></linearGradient><linearGradient
       id="linearGradient16355"
       inkscape:swatch="solid"><stop
         style="stop-color:#85c23e;stop-opacity:1;"
         offset="0"
         id="stop16353" /></linearGradient><clipPath
       clipPathUnits="userSpaceOnUse"
       id="clipPath27372"><rect
         style="fill:#030303;fill-opacity:0.57478;stroke:none;stroke-width:6.45851;stroke-linecap:round;stroke-linejoin:round;stroke-dasharray:none;stroke-opacity:1"
         id="rect27374"
         width="224.86371"
         height="146.63794"
         x="-5.6444445"
         y="15.522223" /></clipPath></defs><g
     inkscape:label="Calque 10"
     inkscape:groupmode="layer"
     id="g236"
     style="display:inline"><rect
       style="display:inline;fill:#83c237;fill-opacity:1;stroke:none;stroke-width:2.5485;stroke-linecap:round;stroke-linejoin:round;stroke-dasharray:none;stroke-opacity:1"
       id="rect7624"
       width="270.93332"
       height="270.93332"
       x="-9.7699626e-15"
       y="-7.9936058e-15" /><path
       style="display:inline;fill:#ffffff;fill-opacity:1;fill-rule:nonzero;stroke:none;stroke-width:0.678492;stroke-opacity:1"
       d="m 38.02315,197.67353 c 0,10.85588 0,21.71174 10.855865,21.71174 v 18.99778 c 0,5.42792 5.427918,8.1419 13.569823,8.1419 8.141905,0 13.569851,-2.71398 13.569851,-8.1419 0,-5.42796 -2.7e-5,-18.99778 -2.7e-5,-18.99778 H 195.43329 v 18.99778 c 0,5.42792 5.42793,8.1419 13.56984,8.1419 8.1419,0 13.56984,-2.71398 13.56984,-8.1419 v -18.99778 c 10.85588,0 10.85588,-10.85586 10.85588,-21.71174 V 67.403071 c 0,-40.709518 -10.85588,-40.709514 -97.70287,-40.709514 -86.846991,0 -97.702857,-4e-6 -97.702857,40.709508 M 200.86122,211.76528 c -10.85586,0 -16.28381,-8.1419 -16.28381,-16.28381 0,-8.14191 5.42795,-16.2838 16.28381,-16.2838 10.85586,0 16.28381,8.14189 16.28381,16.2838 0,8.14191 -5.42792,16.28381 -16.28381,16.28381 z m -130.270477,0 c -10.855878,-1e-5 -16.283818,-8.14191 -16.283818,-16.28381 0,-8.14189 5.42794,-16.28379 16.283818,-16.28379 10.855878,0 16.283817,8.14192 16.283817,16.28382 0,8.1419 -5.427939,16.2838 -16.283817,16.28378 z m -5.213284,-147.008299 144.257191,4e-6 a 3.8836156,3.8836156 45.000065 0 1 3.88361,3.883624 l -2.1e-4,94.147421 a 3.8836331,3.8836331 135.00006 0 1 -3.88363,3.88362 l -144.215093,0 a 3.8852201,3.8852201 44.988231 0 1 -3.885219,-3.88362 L 61.49543,68.640605 a 3.8820291,3.8820291 134.98823 0 1 3.882029,-3.883624 z"
       id="path234"
       sodipodi:nodetypes="cczzzzcccccccccssssssssssccccc"
       inkscape:path-effect="#path-effect240"
       inkscape:original-d="m 38.02315,197.67353 c 0,10.85588 0,21.71174 10.855865,21.71174 v 18.99778 c 0,5.42792 5.427918,8.1419 13.569823,8.1419 8.141905,0 13.569851,-2.71398 13.569851,-8.1419 0,-5.42796 -2.7e-5,-18.99778 -2.7e-5,-18.99778 H 195.43329 v 18.99778 c 0,5.42792 5.42793,8.1419 13.56984,8.1419 8.1419,0 13.56984,-2.71398 13.56984,-8.1419 v -18.99778 c 10.85588,0 10.85588,-10.85586 10.85588,-21.71174 V 67.403071 c 0,-40.709518 -10.85588,-40.709514 -97.70287,-40.709514 -86.846991,0 -97.702857,-4e-6 -97.702857,40.709508 M 200.86122,211.76528 c -10.85586,0 -16.28381,-8.1419 -16.28381,-16.28381 0,-8.14191 5.42795,-16.2838 16.28381,-16.2838 10.85586,0 16.28381,8.14189 16.28381,16.2838 0,8.14191 -5.42792,16.28381 -16.28381,16.28381 z m -130.270477,0 c -10.855878,-1e-5 -16.283818,-8.14191 -16.283818,-16.28381 0,-8.14189 5.42794,-16.28379 16.283818,-16.28379 10.855878,0 16.283817,8.14192 16.283817,16.28382 0,8.1419 -5.427939,16.2838 -16.283817,16.28378 z m -9.096908,-147.008299 152.024435,4e-6 -2.3e-4,101.914665 H 61.535703 Z" /><text
       xml:space="preserve"
       style="font-size:100.95px;font-family:Carlito;-inkscape-font-specification:'Carlito, Normal';display:inline;fill:#dcdad7;fill-opacity:1;stroke:none;stroke-width:4.69754;stroke-linecap:round;stroke-linejoin:round;stroke-dasharray:none;stroke-opacity:1"
       x="56.678188"
       y="240.37631"
       id="text25824"><tspan
         id="tspan25822"
         style="font-style:normal;font-variant:normal;font-weight:normal;font-stretch:normal;font-size:3.13151px;font-family:'Comic Sans MS';-inkscape-font-specification:'Comic Sans MS, Normal';font-variant-ligatures:normal;font-variant-caps:normal;font-variant-numeric:normal;font-variant-east-asian:normal;fill:#dcdad7;fill-opacity:1;stroke-width:4.69754;stroke-dasharray:none"
         x="56.678188"
         y="240.37631"
         sodipodi:role="line">Bubulle</tspan></text><path
       style="color:#000000;display:inline;fill:#ffffff;stroke:#83c237;stroke-width:6.61458;stroke-linecap:round;stroke-linejoin:round;stroke-dasharray:none;stroke-opacity:1"
       d="M 19.601562,24.121094 5.171875,32.798828 13.851563,47.228516 190.65234,91.226562 c 0,0 0.15624,-0.05909 1.0918,1.089844 0.93556,1.148933 2.95536,3.462175 0.52734,13.218754 -2.42801,9.75657 -5.29717,10.85325 -6.66211,11.42968 -1.36493,0.57644 -1.4746,0.45118 -1.4746,0.45118 l -32.86524,-8.17969 c -6.38083,-1.58767 -12.84077,2.29721 -14.42969,8.67773 L 122,177.55273 l -11.07227,-2.7539 20.85839,-83.868821 c 1.58837,-6.380942 -2.29679,-12.841345 -8.67774,-14.429687 -6.38154,-1.588258 -12.84223,2.297945 -14.42969,8.679687 L 84.945312,180.60156 c -1.587673,6.38084 2.297208,12.84077 8.677735,14.42969 l 34.179683,8.50586 c 6.38144,1.58755 12.84166,-2.29837 14.42969,-8.67969 l 14.83985,-59.63867 21.31054,5.30469 c 0,0 8.10563,1.91792 16.49024,-1.62305 8.38461,-3.54097 16.79993,-12.72362 20.50586,-27.61523 3.70591,-14.891617 0.57709,-26.948109 -5.16993,-34.005863 -5.74701,-7.057754 -13.80664,-9.160156 -13.80664,-9.160156 z"
       id="path25988"
       clip-path="url(#clipPath27372)"
       sodipodi:nodetypes="ccccsssccccccccccccccssscc"
       transform="matrix(0.88766991,0,0,0.88766991,15.476294,16.359565)" /></g></svg>
